<?xml version="1.0" encoding="UTF-8"?>
<svg version="1.1" xmlns="http://www.w3.org/2000/svg" width="471" height="475">
<path d="M0 0 C0.75925781 0.62261719 1.51851562 1.24523438 2.30078125 1.88671875 C20.32996245 18.18663568 30.87823017 47.35788779 32.17700195 71.25708008 C32.71493874 102.09093073 32.71493874 102.09093073 28 116 C27.79632813 116.64324219 27.59265625 117.28648437 27.3828125 117.94921875 C22.46323398 133.40641299 13.97109759 146.9195971 5.375 160.5625 C-3.39843617 174.48976916 -11.67980326 188.02617408 -10 205 C-7.82344326 212.45521538 -3.701255 217.2048338 3 221 C9.61728583 224.03292267 15.56963029 223.67551801 22.3125 221.4375 C32.00587302 217.58415089 39.47727526 211.79289967 46.95483398 204.68994141 C52.96206676 199.00649397 59.39318035 193.96374813 66 189 C66.58958496 188.55350098 67.17916992 188.10700195 67.78662109 187.64697266 C85.4981596 174.30889244 103.5078734 166.53603839 126 169 C161.03418001 175.00254859 195.04415332 209.02156323 214.79980469 236.34667969 C216.05441311 238.07495638 217.34130968 239.77572056 218.6328125 241.4765625 C224.44071039 249.22651655 229.14254985 257.07772804 233 266 C233.43441406 267.0003125 233.86882812 268.000625 234.31640625 269.03125 C239.94047893 284.23780191 238.31714488 301.32429192 232 316 C220.2794033 340.62847463 198.10709052 359.38778081 175 373 C173.97060303 373.60908203 173.97060303 373.60908203 172.92041016 374.23046875 C143.29778899 391.4644842 110.8721498 395.62879092 77.40136719 399.20043945 C63.82860856 400.65206724 50.38824082 402.28956808 37 405 C35.98437988 405.1969043 34.96875977 405.39380859 33.92236328 405.59667969 C1.25063473 412.06158391 -30.59732975 423.29327018 -61.78466797 434.81542969 C-84.31648869 442.97344171 -110.4141556 450.11914394 -133.4921875 440.31640625 C-150.8851021 431.18648067 -160.20896588 413.88242116 -165.98608398 395.89575195 C-182.8745726 340.68226113 -176.48623062 282.50786547 -164.62583447 227.07101727 C-158.13653323 196.73815868 -152.74409614 166.38844926 -148.38098145 135.66998291 C-142.88708518 97.16782143 -142.88708518 97.16782143 -138 82 C-137.78263184 81.32163086 -137.56526367 80.64326172 -137.34130859 79.94433594 C-130.9777872 60.60919842 -120.90990789 44.21482328 -107.09765625 29.2890625 C-105.25981506 27.28352258 -103.53772926 25.22640707 -101.8125 23.125 C-86.3256131 5.46138476 -62.01134851 -10.65069718 -38.2109375 -12.93359375 C-23.18450886 -13.38491758 -11.51100589 -9.66506546 0 0 Z M-102.67578125 247.8125 C-108.52336198 255.00952244 -111.77843845 262.8663526 -111.3828125 272.203125 C-109.88666131 283.13418878 -104.29788105 291.92419516 -95.765625 298.75 C-89.45891043 303.21493067 -82.5832445 304.28220958 -75 304 C-65.0694874 302.25028308 -57.14842558 298.40648939 -50.96484375 290.34765625 C-45.31358062 281.88816791 -42.85206768 274.19139909 -44 264 C-46.68499345 254.36723999 -51.84597894 246.79216668 -60 241 C-74.77087266 232.98704294 -91.1549051 235.35169223 -102.67578125 247.8125 Z " fill="#FEFEFE" transform="translate(227,21)"/>
</svg>
